<?xml version="1.0" encoding="utf-8"?>
<svg
  xmlns="http://www.w3.org/2000/svg"
  viewBox="1500 1250 1150 1100"
  xml:space="preserve"
>
  <g fill-rule="evenodd" clip-rule="evenodd" fill="#FFFFFF">

    <!-- Letter J -->
    <path d="M1944.844,1250.724c-4.998,0-8.743,3.748-8.743,9.994v835.477
      c0,118.642-81.179,173.59-169.844,173.59c-122.388,0-182.332-102.405
      -182.332-202.316c0-21.229,2.499-41.208,7.494-61.19v-2.501
      c0-4.994-3.749-8.742-8.743-8.742c-1.25,0-3.745,0-4.994,1.252
      l-106.151,58.696c-3.745,1.248-4.998,4.994-4.998,8.742
      c16.237,102.405,103.656,238.53,310.964,238.53h1.25
      c131.127,0,290.979-99.91,290.979-332.196v-709.343
      c0-6.246-3.741-9.994-8.74-9.994H1944.844z"/>

    <!-- Letter A -->
    <path d="M2128.827,1425.562l192.321,629.422
      c-133.626-153.61-277.245-193.573-329.696-202.315L2128.827,1425.562z
      M2223.736,1258.218c-1.246-4.995-4.994-7.495-9.993-7.495h-64.935
      c-3.749,0-7.541,2.487-8.743,6.248l-324.902,1019.167
      c0,1.248-1.246,2.5-1.246,3.747c0,3.749,4.995,7.492,9.989,7.492
      h19.982c3.749,0,7.53-2.483,8.743-6.243l116.341-361.027
      c52.455,3.748,237.282,31.22,377.156,216.049l48.699,159.854
      c1.253,3.748,5.002,6.248,8.743,6.248h119.893
      c4.994,0,9.989-3.749,9.989-7.495c0-1.247-1.246-2.496-1.246-3.748
      L2223.736,1258.218z"/>

  </g>
</svg>
